<?xml version="1.0" encoding="UTF-8" standalone="no"?>
<svg
   width="200"
   height="26"
   version="1.1"
   id="svg10"
   sodipodi:docname="page-logo-i.svg"
   inkscape:version="1.3 (0e150ed6c4, 2023-07-21)"
   xmlns:inkscape="http://www.inkscape.org/namespaces/inkscape"
   xmlns:sodipodi="http://sodipodi.sourceforge.net/DTD/sodipodi-0.dtd"
   xmlns="http://www.w3.org/2000/svg"
   xmlns:svg="http://www.w3.org/2000/svg">
  <defs
     id="defs14" />
  <sodipodi:namedview
     id="namedview12"
     pagecolor="#505050"
     bordercolor="#ffffff"
     borderopacity="1"
     inkscape:pageshadow="0"
     inkscape:pageopacity="0"
     inkscape:pagecheckerboard="1"
     showgrid="true"
     width="137px"
     inkscape:current-layer="svg10"
     showguides="true"
     inkscape:guide-bbox="true"
     inkscape:showpageshadow="0"
     inkscape:deskcolor="#d1d1d1">
    <inkscape:grid
       type="xygrid"
       id="grid5602"
       originx="0"
       originy="0"
       spacingy="1"
       spacingx="1"
       units="px"
       visible="true" />
    <sodipodi:guide
       position="60,11"
       orientation="0,-1"
       id="guide140"
       inkscape:locked="false" />
  </sodipodi:namedview>
  <path
     d="M 4.8257663,-13.575782 H 0.68939518 L 4.7197055,-6.787891 0.55681919,0 H 4.7462207 L 7.053043,-4.0303103 H 7.1591038 L 9.4659262,0 H 13.681843 L 9.4659262,-6.787891 13.522752,-13.575782 H 9.4128958 l -2.253792,3.9507646 H 7.053043 Z M 20.337174,0 c 4.136371,0 6.761376,-2.5454591 6.761376,-6.787891 0,-4.242432 -2.625005,-6.787891 -6.814407,-6.787891 H 15.11368 V 0 Z m -1.537882,-3.1287935 v -7.3181955 h 1.299245 c 2.121216,0 3.287885,0.8219716 3.287885,3.659098 0,2.8371263 -1.166669,3.6590975 -3.181824,3.6590975 z m 18.812525,-5.9659199 h 3.725385 c -0.285038,-2.7244366 -2.757581,-4.6666746 -5.96592,-4.6666746 -3.659097,0 -6.6288,2.518943 -6.6288,7.0000122 0,4.2954623 2.691293,6.9469822 6.655315,6.9469822 3.553037,0 6.098496,-2.1742464 6.098496,-5.8863743 V -7.583347 h -6.01895 v 2.6250047 h 2.465914 c -0.03314,1.1799264 -0.868373,1.9356096 -2.518944,1.9356096 -1.909095,0 -2.890157,-1.4053056 -2.890157,-3.7916735 0,-2.353224 1.060608,-3.7386428 2.916672,-3.7386428 1.153411,0 1.935609,0.530304 2.160989,1.4583356 z M 52.155423,0 c 4.136371,0 6.761375,-2.5454591 6.761375,-6.787891 0,-4.242432 -2.625004,-6.787891 -6.814406,-6.787891 H 46.931928 V 0 Z m -1.537882,-3.1287935 v -7.3181955 h 1.299245 c 2.121216,0 3.287885,0.8219716 3.287885,3.659098 0,2.8371263 -1.166669,3.6590975 -3.181824,3.6590975 z m 14.92805,3.3143999 c 2.823868,0 4.640159,-1.3522752 4.984857,-3.4734911 h -3.340915 c -0.212122,0.5767056 -0.815342,0.9015168 -1.564397,0.9015168 -1.087123,0 -1.723488,-0.7159104 -1.723488,-1.6969728 v -0.1590912 h 6.6288 v -0.8484864 c 0,-3.2414831 -1.98864,-5.2234947 -5.064403,-5.2234947 -3.155309,0 -5.170464,2.0947012 -5.170464,5.2500099 0,3.2945135 1.98864,5.2500095 5.25001,5.2500095 z m -1.643943,-6.4431935 c 0.01989,-0.8816303 0.749055,-1.4848511 1.643943,-1.4848511 0.908145,0 1.59754,0.6098496 1.617427,1.4848511 z m 17.420476,-0.6098495 c -0.0928,-2.15436 -1.882579,-3.4469764 -4.825766,-3.4469764 -2.910043,0 -4.706448,1.1931844 -4.69319,3.3144004 -0.01326,1.6041695 1.027464,2.6316335 3.102278,2.9962175 l 1.803034,0.3181824 c 0.795456,0.1458336 1.153411,0.3579552 1.166668,0.7424256 -0.01326,0.4242432 -0.49716,0.66288 -1.166668,0.66288 -0.8286,0 -1.411935,-0.3579552 -1.511367,-1.0075776 h -3.632582 c 0.198864,2.0880719 2.001898,3.4734911 5.117433,3.4734911 2.81724,0 4.892055,-1.3721616 4.905312,-3.5530367 -0.01326,-1.5047376 -1.020835,-2.3797392 -3.102278,-2.7575808 l -2.068186,-0.3712127 c -0.775569,-0.1392048 -0.99432,-0.4176144 -0.981062,-0.7159104 -0.01326,-0.4242432 0.510418,-0.66288 1.140154,-0.66288 0.722539,0 1.32576,0.3844704 1.37879,1.0075776 z M 82.992577,0 h 3.659097 V -2.8901567 L 87.201865,-3.5861807 89.276679,0 h 4.189401 l -3.566294,-5.7206543 3.460234,-4.4611827 h -4.109856 l -2.465914,3.4204612 h -0.132576 v -6.8144062 h -3.659097 z m 17.393983,-10.181837 h -1.75 v -2.439398 h -3.659097 v 2.439398 h -1.299245 v 2.6515204 h 1.299245 v 4.6003871 c -0.02652,2.13447352 1.292616,3.21496789 3.818189,3.0757631 0.8286,-0.0464016 1.445078,-0.2187504 1.776518,-0.3181824 l -0.5303,-2.5719743 c -0.139209,0.033144 -0.497164,0.1060608 -0.715914,0.1060608 -0.477274,0 -0.689396,-0.2121216 -0.689396,-0.6363648 v -4.2556895 h 1.75 z m 6.28409,10.3674434 c 3.3144,0 5.27653,-2.121216 5.27653,-5.2500095 0,-3.1287935 -1.96213,-5.2500099 -5.27653,-5.2500099 -3.3144,0 -5.27652,2.1212164 -5.27652,5.2500099 0,3.1287935 1.96212,5.2500095 5.27652,5.2500095 z m 0.0265,-2.7045503 c -0.98106,0 -1.5644,-0.9744336 -1.5644,-2.5719744 0,-1.5975407 0.58334,-2.5719743 1.5644,-2.5719743 0.92803,0 1.51137,0.9744336 1.51137,2.5719743 0,1.5975408 -0.58334,2.5719744 -1.51137,2.5719744 z m 6.73486,6.3371326 h 3.6591 v -5.4886463 h 0.053 c 0.42424,1.03409281 1.4053,1.8030336 2.83712,1.8030336 2.17425,0 4.0038,-1.6969728 4.0038,-5.2234943 0,-3.6856127 -1.96213,-5.2234947 -3.97728,-5.2234947 -1.51137,0 -2.46591,0.875002 -2.86364,1.9090948 h -0.0795 v -1.7765188 h -3.63258 z m 3.57955,-8.909107 c 0,-1.5113663 0.60985,-2.4128831 1.61743,-2.4128831 1.00758,0 1.59091,0.9015168 1.59091,2.4128831 0,1.5113664 -0.58333,2.4128832 -1.59091,2.4128832 -1.00758,0 -1.61743,-0.928032 -1.61743,-2.4128832 z M 129.18207,0 h 3.68561 v -4.0303103 h 2.04167 c 3.09565,0 5.17047,-1.82292 5.17047,-4.7462207 0,-2.890157 -2.02179,-4.799251 -5.03789,-4.799251 h -5.85986 z m 3.68561,-6.8939518 v -3.7386432 h 1.29925 c 1.29261,0 2.06818,0.6893952 2.06818,1.856064 0,1.16004 -0.77557,1.8825792 -2.06818,1.8825792 z m 13.31063,7.0795582 c 3.3144,0 5.27653,-2.121216 5.27653,-5.2500095 0,-3.1287935 -1.96213,-5.2500099 -5.27653,-5.2500099 -3.3144,0 -5.27652,2.1212164 -5.27652,5.2500099 0,3.1287935 1.96212,5.2500095 5.27652,5.2500095 z m 0.0265,-2.7045503 c -0.98106,0 -1.5644,-0.9744336 -1.5644,-2.5719744 0,-1.5975407 0.58334,-2.5719743 1.5644,-2.5719743 0.92803,0 1.51137,0.9744336 1.51137,2.5719743 0,1.5975408 -0.58334,2.5719744 -1.51137,2.5719744 z M 152.93969,0 h 3.6591 v -5.3030399 c 0,-1.1666687 0.80208,-1.9356095 1.88258,-1.9356095 0.37784,0 0.98769,0.059659 1.35227,0.1856064 v -3.122165 c -0.29167,-0.08617 -0.60985,-0.139205 -0.92803,-0.139205 -1.08712,0 -1.93561,0.6363652 -2.30682,2.068186 h -0.10606 v -1.93561 h -3.55304 z m 14.58338,-10.181837 h -1.75 v -2.439398 h -3.6591 v 2.439398 h -1.29925 v 2.6515204 h 1.29925 v 4.6003871 c -0.0265,2.13447352 1.29261,3.21496789 3.81819,3.0757631 0.8286,-0.0464016 1.44508,-0.2187504 1.77652,-0.3181824 l -0.53031,-2.5719743 c -0.1392,0.033144 -0.49716,0.1060608 -0.71591,0.1060608 -0.47727,0 -0.68939,-0.2121216 -0.68939,-0.6363648 v -4.2556895 h 1.75 z m 4.32197,10.3409282 c 1.32576,0 2.32671,-0.45075839 2.94319,-1.590912 h 0.0795 V 0 h 3.42046 v -6.9734974 c 0,-1.8825792 -1.78315,-3.3409156 -4.69319,-3.3409156 -3.04262,0 -4.54073,1.5909124 -4.66667,3.4469764 h 3.36743 c 0.0862,-0.629736 0.55019,-0.928032 1.24621,-0.928032 0.63637,0 1.08712,0.2916672 1.08712,0.8219712 v 0.026515 c 0,0.5899631 -0.64962,0.7755695 -2.35985,0.9015167 -2.10133,0.1524624 -3.73864,1.0009488 -3.73864,3.2348544 0,2.02841272 1.36553,2.9697023 3.3144,2.9697023 z m 1.19318,-2.3068223 c -0.62311,0 -1.06061,-0.3049248 -1.06061,-0.8750016 0,-0.5236752 0.37122,-0.928032 1.2197,-1.060608 0.58334,-0.092803 1.07387,-0.2121216 1.45834,-0.3712128 v 0.8484864 c 0,0.928032 -0.78883,1.458336 -1.61743,1.458336 z m 10.65912,-11.4280509 h -3.65909 V 0 h 3.65909 z"
     id="text1"
     style="font-weight:900;font-size:18.6667px;line-height:1.25;font-family:Inter;-inkscape-font-specification:'Inter, Heavy';letter-spacing:0px;word-spacing:0px;white-space:pre;fill:#f6f5f4"
     transform="translate(6.3026563,18.761388)"
     aria-label="XDG Desktop Portal" />
</svg>
